<?xml version="1.0" encoding="UTF-8" standalone="no"?>
<!DOCTYPE svg PUBLIC "-//W3C//DTD SVG 1.1//EN" "http://www.w3.org/Graphics/SVG/1.1/DTD/svg11.dtd">
<svg xmlns="http://www.w3.org/2000/svg" version="1.1" viewBox="0 0 192 192">
<path fill="#000000" d="
  M 112.17 30.16
  C 89.33 26.50 65.28 33.46 45.75 45.49
  A 1.00 1.00 0.0 0 1 44.39 45.19
  L 29.10 22.02
  A 1.01 1.01 0.0 0 1 29.47 20.58
  Q 41.57 14.11 54.31 9.06
  C 71.29 2.33 91.95 -0.10 110.48 0.20
  C 148.68 0.82 181.29 19.37 183.57 61.20
  A 1.00 1.00 0.0 0 1 182.57 62.25
  L 145.07 62.25
  A 1.00 1.00 0.0 0 1 144.07 61.31
  C 142.92 41.56 130.35 33.07 112.17 30.16
  Z"
/>
<path fill="#000000" d="
  M 183.40 192.00
  L 142.61 192.00
  L 142.27 170.19
  Q 142.23 167.87 140.57 169.49
  Q 135.21 174.72 128.91 178.74
  C 117.04 186.31 101.42 190.31 87.44 192.00
  L 65.69 192.00
  C 43.60 189.12 21.59 177.73 12.80 156.13
  Q 6.17 139.85 9.73 122.99
  C 17.75 85.07 55.10 77.41 88.07 77.63
  Q 135.28 77.96 182.51 78.59
  A 1.00 1.00 0.0 0 1 183.50 79.59
  L 183.40 192.00
  Z
  M 49.86 125.15
  C 45.98 141.72 55.85 157.79 72.24 161.57
  C 97.66 167.44 133.04 158.14 141.22 129.74
  C 143.12 123.12 142.20 114.46 142.25 107.29
  A 0.99 0.99 0.0 0 0 141.26 106.29
  Q 111.06 106.14 80.69 106.36
  C 67.65 106.45 53.20 110.86 49.86 125.15
  Z"
/>
</svg>
